<?xml version="1.0" standalone="no"?>
<!DOCTYPE svg PUBLIC "-//W3C//DTD SVG 20010904//EN"
 "http://www.w3.org/TR/2001/REC-SVG-20010904/DTD/svg10.dtd">
<svg version="1.0" xmlns="http://www.w3.org/2000/svg"
 width="192.000000pt" height="192.000000pt" viewBox="0 0 192.000000 192.000000"
 preserveAspectRatio="xMidYMid meet">

<g transform="translate(0.000000,192.000000) scale(0.100000,-0.100000)"
fill="#000000" stroke="none">
<path d="M387 1324 c-14 -14 -7 -35 11 -32 9 2 17 10 17 17 0 16 -18 25 -28
15z"/>
<path d="M910 1225 c0 -87 3 -105 15 -105 12 0 15 18 15 105 0 87 -3 105 -15
105 -12 0 -15 -18 -15 -105z"/>
<path d="M1120 1220 l0 -100 65 0 c50 0 65 3 65 14 0 11 -14 16 -47 18 -44 3
-48 5 -48 28 0 22 5 25 43 28 28 2 42 8 42 18 0 10 -12 14 -45 14 -41 0 -45 2
-45 25 0 23 3 25 50 25 38 0 50 4 50 15 0 12 -14 15 -65 15 l-65 0 0 -100z"/>
<path d="M236 1295 c-33 -33 -19 -64 39 -87 49 -19 56 -51 12 -56 -16 -2 -35
2 -43 9 -13 10 -17 10 -24 -2 -19 -30 78 -53 112 -26 8 6 18 20 21 29 8 24
-28 65 -63 73 -21 5 -30 12 -30 27 0 17 5 20 40 16 32 -3 40 0 38 12 -5 22
-81 26 -102 5z"/>
<path d="M382 1198 c2 -42 8 -73 14 -75 17 -6 20 14 16 85 -3 46 -8 62 -18 62
-12 0 -14 -14 -12 -72z"/>
<path d="M460 1195 c0 -59 3 -75 15 -75 10 0 15 15 17 57 2 48 6 58 22 61 28
6 46 -25 46 -75 0 -24 5 -43 10 -43 6 0 10 18 10 41 0 53 15 79 45 79 22 0 24
-4 27 -57 2 -44 7 -58 18 -58 12 0 14 12 12 59 -1 33 -7 65 -13 73 -15 18 -54
17 -69 -2 -12 -14 -15 -14 -30 0 -19 18 -51 20 -67 4 -8 -8 -13 -8 -17 0 -17
27 -26 5 -26 -64z"/>
<path d="M730 1165 c0 -87 3 -105 15 -105 11 0 15 11 15 35 0 35 0 36 34 29
70 -13 114 76 63 124 -26 24 -66 29 -85 10 -9 -9 -12 -9 -12 0 0 7 -7 12 -15
12 -12 0 -15 -18 -15 -105z m111 54 c8 -16 8 -28 0 -46 -9 -20 -17 -24 -44
-21 -27 2 -33 8 -35 31 -2 16 2 35 9 43 17 21 57 17 70 -7z"/>
<path d="M991 1246 c-49 -52 -1 -136 68 -121 44 9 39 25 -8 25 -24 0 -41 5
-44 14 -8 21 2 26 50 26 48 0 56 17 27 58 -20 30 -64 29 -93 -2z m67 -8 c20
-20 14 -28 -23 -28 -19 0 -35 4 -35 8 0 12 22 32 35 32 6 0 16 -5 23 -12z"/>
<path d="M1280 1192 c0 -65 2 -73 18 -70 13 2 18 15 20 55 6 95 58 95 64 0 2
-38 7 -52 18 -52 22 0 26 89 6 120 -13 20 -23 23 -71 22 l-55 -1 0 -74z"/>
<path d="M1430 1263 c0 -14 42 -118 52 -130 6 -7 14 -13 18 -13 9 0 72 141 66
148 -13 12 -36 -11 -46 -47 -15 -58 -26 -58 -45 -1 -10 29 -23 50 -31 50 -8 0
-14 -3 -14 -7z"/>
<path d="M1592 1258 c-25 -25 -7 -68 29 -68 9 0 22 -7 30 -16 17 -21 -6 -36
-43 -28 -36 7 -37 -13 -2 -22 30 -8 72 9 80 31 8 20 -20 51 -52 59 -35 9 -24
31 15 29 44 -2 35 21 -10 25 -19 2 -40 -3 -47 -10z"/>
<path d="M1703 1208 c2 -7 19 -13 37 -13 18 0 35 6 38 13 2 8 -9 12 -38 12
-29 0 -40 -4 -37 -12z"/>
<path d="M950 930 l0 -170 25 0 c25 0 25 1 25 83 0 93 13 117 62 117 39 0 47
-18 50 -110 3 -83 4 -85 28 -85 25 0 25 0 25 98 0 96 -1 100 -28 123 -34 29
-76 31 -111 3 l-26 -20 0 65 c0 64 -1 66 -25 66 l-25 0 0 -170z"/>
<path d="M220 920 l0 -160 30 0 c29 0 30 1 30 49 l0 48 56 7 c97 11 134 41
134 110 0 72 -59 105 -187 106 l-63 0 0 -160z m171 100 c24 -13 26 -72 3 -91
-9 -7 -37 -13 -62 -13 l-47 -1 -3 58 -3 57 46 0 c26 0 55 -5 66 -10z"/>
<path d="M800 1035 c0 -31 -3 -35 -25 -35 -18 0 -25 -5 -25 -20 0 -15 7 -20
25 -20 25 0 25 -1 25 -83 0 -97 13 -117 73 -117 30 0 37 4 37 20 0 14 -7 20
-24 20 -30 0 -36 16 -36 96 l0 64 30 0 c23 0 30 5 30 19 0 14 -8 21 -27 23
-23 2 -29 8 -31 36 -3 26 -7 32 -28 32 -21 0 -24 -5 -24 -35z"/>
<path d="M490 1005 c0 -2 23 -53 50 -115 28 -62 50 -118 50 -124 0 -25 -41
-57 -68 -54 -21 2 -27 -1 -27 -17 0 -16 8 -21 38 -23 55 -5 84 31 144 175 64
151 65 157 32 161 -23 3 -27 -3 -48 -67 -37 -114 -42 -116 -78 -25 -27 71 -33
79 -62 85 -17 4 -31 5 -31 4z"/>
<path d="M1242 976 c-34 -32 -37 -39 -37 -90 0 -49 4 -59 33 -88 29 -30 38
-33 92 -33 53 0 63 3 91 31 40 40 49 102 22 154 -22 43 -54 60 -116 60 -40 0
-53 -5 -85 -34z m122 -17 c48 -22 55 -103 12 -139 -24 -19 -72 -17 -96 5 -29
27 -27 89 5 120 27 28 42 30 79 14z"/>
<path d="M1500 890 c0 -66 4 -120 9 -120 5 0 16 -3 25 -6 14 -5 16 5 16 75 0
74 2 84 25 106 27 28 43 31 69 12 14 -10 18 -30 19 -102 2 -89 2 -90 27 -90
24 0 25 3 28 70 4 88 -4 131 -29 156 -23 23 -85 25 -117 3 -20 -14 -22 -14
-22 0 0 10 -9 16 -25 16 l-25 0 0 -120z"/>
</g>
</svg>
